<svg id="图层_1" data-name="图层 1" xmlns="http://www.w3.org/2000/svg" viewBox="0 0 350 140"><defs><style>.cls-1{fill:#ffcd50;}</style></defs><path class="cls-1" d="M81.49,65.09v.17l-1.1.83L69,74.71a.58.58,0,0,0-.25.76c1.11,3.62,2.2,7.25,3.3,10.88.41,1.4.88,2.77,1.23,4.18h-.17l-12.95-9a.4.4,0,0,0-.53,0l-3,2.07c-3.32,2.3-6.64,4.63-10,6.93h-.17c0-.13.07-.26.1-.38q2.22-7.32,4.43-14.64a.61.61,0,0,0-.25-.8L38.37,65.26v-.17L43.06,65c3.62-.08,7.25-.15,10.86-.2a.79.79,0,0,0,.87-.63C56.18,60.1,57.61,56,59,51.92c.28-.81.6-1.61.82-2.45H60c.42,1.21.81,2.42,1.24,3.63,1.28,3.72,2.59,7.43,3.87,11.16a.7.7,0,0,0,.78.55c1.16,0,2.32,0,3.48.07,2.19.06,4.36.08,6.55.11Z"/><path class="cls-1" d="M139,65.09v.17l-1.09.83-11.38,8.62a.6.6,0,0,0-.25.76q1.67,5.43,3.3,10.88c.42,1.4.88,2.77,1.23,4.18h-.16l-13-9a.4.4,0,0,0-.53,0l-3,2.07c-3.31,2.3-6.63,4.63-9.95,6.93h-.16c0-.13.06-.26.1-.38q2.2-7.32,4.42-14.64a.6.6,0,0,0-.24-.8L95.9,65.26v-.17l4.7-.08c3.61-.08,7.25-.15,10.86-.2a.78.78,0,0,0,.86-.63q2.1-6.12,4.25-12.26c.28-.81.6-1.61.81-2.45h.17c.41,1.21.81,2.42,1.24,3.63,1.28,3.72,2.59,7.43,3.87,11.16a.69.69,0,0,0,.77.55c1.17,0,2.33,0,3.49.07,2.19.06,4.36.08,6.55.11Z"/><path class="cls-1" d="M196.56,65.09v.17l-1.09.83-11.38,8.62a.59.59,0,0,0-.25.76q1.66,5.43,3.3,10.88c.41,1.4.88,2.77,1.23,4.18h-.17l-12.95-9a.4.4,0,0,0-.53,0l-3,2.07c-3.32,2.3-6.63,4.63-9.95,6.93h-.17c0-.13.07-.26.1-.38q2.22-7.32,4.43-14.64a.59.59,0,0,0-.25-.8l-12.47-9.45v-.17l4.69-.08c3.62-.08,7.25-.15,10.87-.2a.79.79,0,0,0,.86-.63c1.39-4.08,2.82-8.16,4.24-12.26.29-.81.6-1.61.82-2.45h.16c.42,1.21.82,2.42,1.25,3.63,1.27,3.72,2.58,7.43,3.86,11.16a.7.7,0,0,0,.78.55c1.16,0,2.32,0,3.48.07,2.19.06,4.36.08,6.55.11Z"/><path class="cls-1" d="M254.1,65.09v.17l-1.1.83-11.38,8.62a.58.58,0,0,0-.24.76c1.11,3.62,2.2,7.25,3.3,10.88.41,1.4.87,2.77,1.22,4.18h-.16l-13-9c-.19-.15-.34-.1-.53,0l-3,2.07c-3.32,2.3-6.64,4.63-10,6.93h-.16c0-.13.07-.26.1-.38q2.21-7.32,4.43-14.64a.61.61,0,0,0-.25-.8c-4.17-3.15-8.31-6.3-12.47-9.45v-.17l4.69-.08c3.61-.08,7.25-.15,10.86-.2a.78.78,0,0,0,.86-.63q2.1-6.12,4.25-12.26c.28-.81.6-1.61.81-2.45h.17c.41,1.21.81,2.42,1.24,3.63,1.28,3.72,2.59,7.43,3.87,11.16a.7.7,0,0,0,.78.55c1.16,0,2.32,0,3.48.07,2.19.06,4.36.08,6.55.11Z"/><path class="cls-1" d="M311.63,65.09v.17l-1.09.83-11.38,8.62a.6.6,0,0,0-.25.76q1.66,5.43,3.3,10.88c.42,1.4.88,2.77,1.23,4.18h-.17l-12.95-9a.4.4,0,0,0-.53,0l-3,2.07c-3.32,2.3-6.63,4.63-9.95,6.93h-.17c0-.13.07-.26.1-.38q2.22-7.32,4.43-14.64a.59.59,0,0,0-.25-.8l-12.47-9.45v-.17l4.7-.08c3.61-.08,7.24-.15,10.86-.2a.78.78,0,0,0,.86-.63c1.39-4.08,2.82-8.16,4.25-12.26.28-.81.59-1.61.81-2.45h.16c.42,1.21.82,2.42,1.25,3.63,1.28,3.72,2.59,7.43,3.86,11.16a.71.71,0,0,0,.78.55c1.16,0,2.32,0,3.49.07,2.18.06,4.36.08,6.55.11Z"/></svg>