<svg id="图层_1" data-name="图层 1" xmlns="http://www.w3.org/2000/svg" viewBox="0 0 30 30"><defs><style>.cls-1{fill:#20c1f2;}</style></defs><path class="cls-1" d="M26.26.06,3.8,0A3.76,3.76,0,0,0,.05,3.74L0,26.19a3.74,3.74,0,0,0,3.74,3.75L26.2,30A3.76,3.76,0,0,0,30,26.26L30,3.81A3.74,3.74,0,0,0,26.26.06ZM15.66,6.77a2.08,2.08,0,1,1-2.08,2.06A2.07,2.07,0,0,1,15.66,6.77ZM17.4,22.13l-1.63,2.44a.31.31,0,0,1-.3.17H13.59a2.08,2.08,0,0,1-2.09-2.07,8.25,8.25,0,0,1,.34-2.15c.45-2,.92-4,1.37-5.92l0-.21h-1V13H17c-.07.34-.15.68-.22,1q-.84,3.6-1.67,7.19a1.62,1.62,0,0,0,0,1,.88.88,0,0,0,.17.28c.16.18.28.18.41,0,.39-.57.78-1.15,1.15-1.73a.31.31,0,0,1,.32-.17c.38,0,.75,0,1.19,0C18.07,21.14,17.73,21.63,17.4,22.13Z"/></svg>