<svg id="图层_1" data-name="图层 1" xmlns="http://www.w3.org/2000/svg" viewBox="0 0 30 30"><defs><style>.cls-1{fill:#3c9;}</style></defs><path class="cls-1" d="M26.25,0H3.75A3.75,3.75,0,0,0,0,3.75v22.5A3.75,3.75,0,0,0,3.75,30h22.5A3.75,3.75,0,0,0,30,26.25V3.75A3.75,3.75,0,0,0,26.25,0ZM18.49,7.4c1,1,2,2,3,3-.42.42-.87.87-1.32,1.3l-3-3C17.59,8.3,18.05,7.84,18.49,7.4ZM6.65,22.25c0-1.08.12-2.13.17-3.19l3,3ZM7.91,18,16.08,9.8l3,3c-2.7,2.71-5.43,5.44-8.15,8.19Zm13.73,4.26H12.08a13.2,13.2,0,0,0,1-.89,1.71,1.71,0,0,1,1.37-.48c2.27,0,4.53,0,6.8,0h.36Z"/></svg>