<svg id="图层_1" data-name="图层 1" xmlns="http://www.w3.org/2000/svg" viewBox="0 0 30 30"><defs><style>.cls-1{fill:#4e71ff;}</style></defs><path class="cls-1" d="M28,13.43c0-.63,0-.67-.66-.67-1.13,0-2.26,0-3.4,0-.42,0-.67-.11-.77-.55a3,3,0,0,0-.46-1.06c-.24-.36-.14-.61.15-.89.87-.84,1.71-1.7,2.57-2.55.25-.24.26-.41,0-.67-.8-.76-1.57-1.55-2.35-2.33-.48-.47-.47-.48-1,0-.83.83-1.67,1.66-2.49,2.49a.48.48,0,0,1-.68.11,5.07,5.07,0,0,0-1.22-.53.59.59,0,0,1-.5-.68c0-1.17,0-2.35,0-3.53,0-.54,0-.6-.59-.6H13.38c-.57,0-.62,0-.62.61,0,1.19,0,2.38,0,3.57a.55.55,0,0,1-.42.61,4.56,4.56,0,0,0-1.22.53.56.56,0,0,1-.79-.12c-.84-.87-1.71-1.71-2.55-2.57-.27-.28-.46-.33-.76,0-.75.78-1.54,1.54-2.31,2.3-.47.46-.47.47,0,.94.83.83,1.66,1.67,2.5,2.49a.52.52,0,0,1,.12.72,4.23,4.23,0,0,0-.52,1.17.59.59,0,0,1-.7.52H2.76c-.75,0-.76,0-.76.78v2.92c0,.77,0,.78.76.78,1.13,0,2.27,0,3.4,0a.56.56,0,0,1,.65.47,4.15,4.15,0,0,0,.49,1.15.6.6,0,0,1-.14.85c-.88.85-1.73,1.73-2.6,2.58-.23.23-.25.4,0,.64.82.8,1.63,1.6,2.43,2.43.29.32.49.33.79,0,.83-.85,1.69-1.67,2.52-2.53a.58.58,0,0,1,.85-.13,4.32,4.32,0,0,0,1.19.51.52.52,0,0,1,.42.59c0,.61,0,1.21,0,1.81h0v1.81c0,.5.07.57.58.57h3.27c.58,0,.63-.05.63-.65,0-1.17,0-2.35,0-3.53a.54.54,0,0,1,.45-.62,4.85,4.85,0,0,0,1.22-.51.53.53,0,0,1,.78.14c.85.87,1.72,1.72,2.58,2.59.24.24.41.27.67,0,.77-.81,1.57-1.58,2.37-2.37.45-.45.45-.45,0-.91-.83-.82-1.64-1.64-2.48-2.45a.57.57,0,0,1-.12-.82,5.41,5.41,0,0,0,.48-1.14.6.6,0,0,1,.69-.49c1.16,0,2.32,0,3.48,0,.6,0,.64,0,.65-.63ZM14.9,19.22a4.22,4.22,0,1,1,4.31-4.14A4.21,4.21,0,0,1,14.9,19.22Z"/></svg>