<svg id="图层_1" data-name="图层 1" xmlns="http://www.w3.org/2000/svg" viewBox="0 0 30 30"><defs><style>.cls-1{fill:#4e71ff;}</style></defs><path class="cls-1" d="M26.25,0H3.75A3.75,3.75,0,0,0,0,3.75v22.5A3.75,3.75,0,0,0,3.75,30h22.5A3.75,3.75,0,0,0,30,26.25V3.75A3.75,3.75,0,0,0,26.25,0ZM12.64,15.21,18.31,18a.46.46,0,0,0,.49,0,2.41,2.41,0,0,1,3.23.63A2.08,2.08,0,0,1,22.49,20a2.43,2.43,0,0,1-4.78.66s0-.06,0-.09c.06-.49-.27-.66-.65-.84L11.52,17a.5.5,0,0,0-.5,0,2.42,2.42,0,1,1,.25-4.19.35.35,0,0,0,.41,0q2.84-1.38,5.68-2.73a.54.54,0,0,0,.31-.48A2.41,2.41,0,0,1,20,7.55a2.45,2.45,0,0,1,2.43,2,2.31,2.31,0,0,1-1,2.44,2.28,2.28,0,0,1-2.58.09.57.57,0,0,0-.58,0c-1.87.92-3.76,1.83-5.64,2.74-.1.05-.24.07-.24.22S12.54,15.17,12.64,15.21Z"/></svg>