<svg id="图层_1" data-name="图层 1" xmlns="http://www.w3.org/2000/svg" viewBox="0 0 30 30"><defs><style>.cls-1{fill:#ffcd50;}</style></defs><path class="cls-1" d="M26.26.06,3.8,0A3.76,3.76,0,0,0,.05,3.74L0,26.19a3.74,3.74,0,0,0,3.74,3.75L26.2,30A3.76,3.76,0,0,0,30,26.26L30,3.81A3.74,3.74,0,0,0,26.26.06ZM24.71,12l-.49.37c-1.71,1.31-3.42,2.6-5.14,3.9a.27.27,0,0,0-.11.34q.75,2.45,1.49,4.91c.19.63.4,1.25.56,1.89h-.08L15.09,19.3a.2.2,0,0,0-.24,0l-1.34.94L9,23.38H9c0-.06,0-.12,0-.18.67-2.2,1.33-4.41,2-6.61a.26.26,0,0,0-.11-.35L5.25,12v-.08l2.12,0c1.63,0,3.27-.07,4.9-.09a.36.36,0,0,0,.39-.29Q13.6,8.72,14.58,6c.12-.37.27-.73.36-1.11H15c.19.55.37,1.1.56,1.64.58,1.68,1.17,3.36,1.74,5a.32.32,0,0,0,.36.25l1.57,0c1,0,2,0,3,0l2.5,0Z"/></svg>