<svg id="图层_1" data-name="图层 1" xmlns="http://www.w3.org/2000/svg" viewBox="0 0 128 128"><defs><style>.cls-1{fill:#4e71ff;}.cls-2{fill:#fff;}</style></defs><rect class="cls-1" x="5" y="5" width="118" height="118" rx="20.65"/><path class="cls-1" d="M32.5,37a57.22,57.22,0,0,0,14,3c11,.92,16.9-1.9,30-3a114.75,114.75,0,0,1,19,0"/><path class="cls-2" d="M50.77,41.18c-1.38,0-2.82,0-4.35-.18a57.77,57.77,0,0,1-14.25-3.06,1,1,0,1,1,.66-1.88A56.18,56.18,0,0,0,46.58,39c6.59.56,11.41-.27,17-1.23,3.61-.63,7.7-1.33,12.86-1.77a117.85,117.85,0,0,1,19.16,0,1,1,0,1,1-.16,2,114,114,0,0,0-18.84,0c-5.06.42-9.11,1.12-12.68,1.74A73.82,73.82,0,0,1,50.77,41.18Z"/><path class="cls-1" d="M37,95.5a57.22,57.22,0,0,0,3-14c.92-11-1.9-16.9-3-30a114.75,114.75,0,0,1,0-19"/><path class="cls-2" d="M41.18,77.23c0,1.38,0,2.82-.18,4.35a57.77,57.77,0,0,1-3.06,14.25,1,1,0,0,1-1.88-.66A56.18,56.18,0,0,0,39,81.42c.56-6.59-.27-11.41-1.23-17-.63-3.61-1.33-7.7-1.77-12.86a117.85,117.85,0,0,1,0-19.16,1,1,0,1,1,2,.16,114,114,0,0,0,0,18.84c.42,5.06,1.12,9.11,1.74,12.68A73.82,73.82,0,0,1,41.18,77.23Z"/><path class="cls-1" d="M95.5,91a57.22,57.22,0,0,0-14-3c-11-.92-16.9,1.9-30,3a114.75,114.75,0,0,1-19,0"/><path class="cls-2" d="M77.23,86.82c1.38,0,2.82.05,4.35.18a57.77,57.77,0,0,1,14.25,3.06,1,1,0,0,1-.66,1.88A56.18,56.18,0,0,0,81.42,89c-6.59-.56-11.41.27-17,1.23-3.61.63-7.7,1.33-12.86,1.77a117.85,117.85,0,0,1-19.16,0,1,1,0,1,1,.16-2,114,114,0,0,0,18.84,0c5.06-.42,9.11-1.12,12.68-1.74A73.82,73.82,0,0,1,77.23,86.82Z"/><path class="cls-1" d="M91,32.5a57.22,57.22,0,0,0-3,14c-.92,11,1.9,16.9,3,30a114.75,114.75,0,0,1,0,19"/><path class="cls-2" d="M86.82,50.77c0-1.38.05-2.82.18-4.35a57.77,57.77,0,0,1,3.06-14.25,1,1,0,0,1,1.88.66A56.18,56.18,0,0,0,89,46.58c-.56,6.59.27,11.41,1.23,17,.63,3.61,1.33,7.7,1.77,12.86a117.85,117.85,0,0,1,0,19.16,1,1,0,1,1-2-.16,114,114,0,0,0,0-18.84c-.42-5.06-1.12-9.11-1.74-12.68A73.82,73.82,0,0,1,86.82,50.77Z"/><path class="cls-2" d="M70.69,58.78l-1.79-.85A7.25,7.25,0,0,0,66,57.08c-1.47,0-2.21.69-2.21,2.05,0,.77.69,1.58,2,2.42,2.18,1.33,3.44,2.14,3.8,2.44a5.51,5.51,0,0,1,2,4.29q0,5.31-6.57,7.08c.11,2.09.16,3.24.16,3.47s-.14.21-.43.23a3.94,3.94,0,0,1-.85,0L63.39,79a7.38,7.38,0,0,0-.75.07,5.18,5.18,0,0,1-.73.07.72.72,0,0,1-.29-.06,2.23,2.23,0,0,1-.12-1c0-.42,0-1.07.08-2q-5.28,0-5.35-.73a1.25,1.25,0,0,1,0-.37c0-.21,0-.34,0-.4a15.87,15.87,0,0,0-.14-1.88,8.74,8.74,0,0,0-.3-1.24,5.43,5.43,0,0,1-.23-1.24q0-.42.45-.42a9.39,9.39,0,0,1,1.74.29,9.28,9.28,0,0,0,1.94.28c2.31,0,3.46-.71,3.46-2.14q0-1.12-2-2.52Q58,63.54,57.49,63.07a5.71,5.71,0,0,1-2-4.23,6.53,6.53,0,0,1,1.91-4.63,8.12,8.12,0,0,1,4.45-2.42c0,.12,0-.2-.06-.94a7.7,7.7,0,0,1,0-1.32c0-.45.17-.67.37-.67h3.38c.16,0,.26.2.3.59a7.41,7.41,0,0,1,0,1.2c0,.69,0,1,0,.91a18,18,0,0,1,3.72.88c2,.62,2.93,1.15,2.93,1.59a2,2,0,0,1-.12.52c-.18.39-.42,1-.73,1.81-.09.44-.25,1.1-.49,2C71.07,58.63,70.91,58.78,70.69,58.78Z"/></svg>